<svg xmlns="http://www.w3.org/2000/svg" viewBox="0 0 800 400">
  <defs>
    <style>
      @keyframes rotate {
        from { transform: rotate(0deg); }
        to { transform: rotate(360deg); }
      }
      .rotate {
        transform-origin: 400px 200px;
        animation: rotate 20s linear infinite;
      }
      .node {
        fill: #4F9FE3;
      }
      .line {
        stroke: #4F9FE3;
        stroke-width: 1;
        opacity: 0.4;
      }
      .block {
        fill: #f0f0f0;
        rx: 5;
        ry: 5;
      }
      .block-text {
        font-size: 12px;
        font-family: Arial, sans-serif;
        fill: #444;
      }
      .connection-line {
        stroke: #4F9FE3;
        stroke-width: 1;
        opacity: 0.3;
      }
    </style>
  </defs>

  <!-- Static connection lines from center to both sides -->
  <g>
    <!-- Left side connections -->
    <line class="connection-line" x1="140" y1="52" x2="400" y2="200"/>
    <line class="connection-line" x1="140" y1="87" x2="400" y2="200"/>
    <line class="connection-line" x1="140" y1="122" x2="400" y2="200"/>
    <line class="connection-line" x1="140" y1="157" x2="400" y2="200"/>
    <line class="connection-line" x1="140" y1="192" x2="400" y2="200"/>
    <line class="connection-line" x1="140" y1="227" x2="400" y2="200"/>
    <line class="connection-line" x1="140" y1="262" x2="400" y2="200"/>
    <line class="connection-line" x1="140" y1="297" x2="400" y2="200"/>
    <line class="connection-line" x1="140" y1="332" x2="400" y2="200"/>

    <!-- Right side connections -->
    <line class="connection-line" x1="400" y1="200" x2="660" y2="52"/>
    <line class="connection-line" x1="400" y1="200" x2="660" y2="87"/>
    <line class="connection-line" x1="400" y1="200" x2="660" y2="122"/>
    <line class="connection-line" x1="400" y1="200" x2="660" y2="157"/>
    <line class="connection-line" x1="400" y1="200" x2="660" y2="192"/>
    <line class="connection-line" x1="400" y1="200" x2="660" y2="227"/>
    <line class="connection-line" x1="400" y1="200" x2="660" y2="262"/>
    <line class="connection-line" x1="400" y1="200" x2="660" y2="297"/>
    <line class="connection-line" x1="400" y1="200" x2="660" y2="332"/>
  </g>

  <!-- Left side data source blocks -->
  <g transform="translate(20, 40)">
    <rect class="block" x="0" y="0" width="120" height="25"/>
    <text class="block-text" x="10" y="17">Economic Data</text>

    <rect class="block" x="0" y="35" width="120" height="25"/>
    <text class="block-text" x="10" y="52">Market Research</text>

    <rect class="block" x="0" y="70" width="120" height="25"/>
    <text class="block-text" x="10" y="87">Sector Reports</text>

    <rect class="block" x="0" y="105" width="120" height="25"/>
    <text class="block-text" x="10" y="122">Trade Market Data</text>

    <rect class="block" x="0" y="140" width="120" height="25"/>
    <text class="block-text" x="10" y="157">Review Company Data</text>

    <rect class="block" x="0" y="175" width="120" height="25"/>
    <text class="block-text" x="10" y="192">Database</text>

    <rect class="block" x="0" y="210" width="120" height="25"/>
    <text class="block-text" x="10" y="227">CRM Data</text>

    <rect class="block" x="0" y="245" width="120" height="25"/>
    <text class="block-text" x="10" y="262">Financial Models</text>

    <rect class="block" x="0" y="280" width="120" height="25"/>
    <text class="block-text" x="10" y="297">Portfolio Data</text>
  </g>

  <!-- Right side data blocks -->
  <g transform="translate(660, 40)">
    <rect class="block" x="0" y="0" width="120" height="25"/>
    <text class="block-text" x="10" y="17">Custom Reports</text>

    <rect class="block" x="0" y="35" width="120" height="25"/>
    <text class="block-text" x="10" y="52">Analytics Dashboard</text>

    <rect class="block" x="0" y="70" width="120" height="25"/>
    <text class="block-text" x="10" y="87">Market Analysis</text>

    <rect class="block" x="0" y="105" width="120" height="25"/>
    <text class="block-text" x="10" y="122">Performance Metrics</text>

    <rect class="block" x="0" y="140" width="120" height="25"/>
    <text class="block-text" x="10" y="157">Risk Assessment</text>

    <rect class="block" x="0" y="175" width="120" height="25"/>
    <text class="block-text" x="10" y="192">Portfolio Analytics</text>

    <rect class="block" x="0" y="210" width="120" height="25"/>
    <text class="block-text" x="10" y="227">Trend Reports</text>

    <rect class="block" x="0" y="245" width="120" height="25"/>
    <text class="block-text" x="10" y="262">Forecasting Models</text>

    <rect class="block" x="0" y="280" width="120" height="25"/>
    <text class="block-text" x="10" y="297">Investment Insights</text>
  </g>

  <!-- Centered network graph -->
  <!-- Background circle -->
  <circle cx="400" cy="200" r="150" fill="none" stroke="#4F9FE3" stroke-width="1" opacity="0.3"/>

  <!-- Rotating network group -->
  <g class="rotate">
    <!-- Connection lines -->
    <line class="line" x1="350" y1="150" x2="400" y2="120"/>
    <line class="line" x1="400" y1="120" x2="450" y2="150"/>
    <line class="line" x1="450" y1="150" x2="480" y2="200"/>
    <line class="line" x1="480" y1="200" x2="450" y2="250"/>
    <line class="line" x1="450" y1="250" x2="400" y2="280"/>
    <line class="line" x1="400" y1="280" x2="350" y2="250"/>
    <line class="line" x1="350" y1="250" x2="320" y2="200"/>
    <line class="line" x1="320" y1="200" x2="350" y2="150"/>

    <!-- Cross connections -->
    <line class="line" x1="350" y1="150" x2="450" y2="250"/>
    <line class="line" x1="350" y1="250" x2="450" y2="150"/>
    <line class="line" x1="320" y1="200" x2="480" y2="200"/>
    <line class="line" x1="400" y1="120" x2="400" y2="280"/>
    
    <!-- Nodes -->
    <circle class="node" cx="350" cy="150" r="4"/>
    <circle class="node" cx="450" cy="250" r="4"/>
    <circle class="node" cx="350" cy="250" r="4"/>
    <circle class="node" cx="450" cy="150" r="4"/>
    <circle class="node" cx="400" cy="120" r="4"/>
    <circle class="node" cx="400" cy="280" r="4"/>
    <circle class="node" cx="320" cy="200" r="4"/>
    <circle class="node" cx="480" cy="200" r="4"/>
    <circle class="node" cx="380" cy="180" r="4"/>
    <circle class="node" cx="420" cy="220" r="4"/>
    <circle class="node" cx="380" cy="220" r="4"/>
    <circle class="node" cx="420" cy="180" r="4"/>
  </g>

  <!-- Center static node -->
  <circle cx="400" cy="200" r="6" fill="#4F9FE3"/>
</svg>
