<svg width="24" height="24" viewBox="0 0 24 24" fill="none" xmlns="http://www.w3.org/2000/svg">
<rect width="24" height="24" rx="4" fill="#36363F"/>
<path d="M18 11.9997C18 13.1063 15.3333 13.9997 12 13.9997C8.66667 13.9997 6 13.1063 6 11.9997M12 9.33301C15.3133 9.33301 18 8.43767 18 7.33301C18 6.22834 15.3133 5.33301 12 5.33301C8.68667 5.33301 6 6.22834 6 7.33301C6 8.43767 8.68667 9.33301 12 9.33301Z" stroke="#33BBFF" strokeLinecap="round" strokeLinejoin="round"/>
<path d="M6 7.33301V16.6663C6 17.773 8.66667 18.6663 12 18.6663C15.3333 18.6663 18 17.773 18 16.6663V7.33301" stroke="#33BBFF" strokeLinecap="round" strokeLinejoin="round"/>
</svg>
