<svg width="20" height="20" viewBox="0 0 20 20" fill="none" xmlns="http://www.w3.org/2000/svg">
<path d="M10.0002 11V7M8.00024 9H12.0002M6.66724 14V15.557C6.66724 15.912 6.66724 16.09 6.73924 16.181C6.80324 16.261 6.89924 16.307 7.00024 16.307C7.11724 16.307 7.25624 16.195 7.53324 15.973L9.12324 14.701C9.44824 14.441 9.61124 14.311 9.79224 14.219C9.95224 14.137 10.1222 14.077 10.2992 14.041C10.4992 14 10.7062 14 11.1232 14H12.8002C13.9202 14 14.4802 14 14.9082 13.782C15.2846 13.5903 15.5905 13.2843 15.7822 12.908C16.0002 12.48 16.0002 11.92 16.0002 10.8V7.2C16.0002 6.08 16.0002 5.52 15.7822 5.092C15.5905 4.71569 15.2846 4.40974 14.9082 4.218C14.4802 4 13.9202 4 12.8002 4H7.20024C6.08024 4 5.52024 4 5.09224 4.218C4.71594 4.40974 4.40999 4.71569 4.21824 5.092C4.00024 5.52 4.00024 6.08 4.00024 7.2V11.333C4.00024 11.953 4.00024 12.263 4.06824 12.518C4.15912 12.857 4.33763 13.1662 4.58584 13.4144C4.83404 13.6626 5.1432 13.8411 5.48224 13.932C5.73724 14 6.04724 14 6.66724 14Z" stroke="#808080" stroke-width="1.5" stroke-linecap="round" stroke-linejoin="round"/>
</svg>
