<svg width="20" height="20" viewBox="0 0 20 20" fill="none" xmlns="http://www.w3.org/2000/svg">
<path d="M10.0003 10.6665C10.1772 10.6665 10.3468 10.5962 10.4719 10.4712C10.597 10.3461 10.6673 10.1764 10.6673 9.99952C10.6673 9.82262 10.597 9.65296 10.4719 9.52788C10.3468 9.40279 10.1772 9.33252 10.0003 9.33252C9.82335 9.33252 9.6537 9.40279 9.52861 9.52788C9.40352 9.65296 9.33325 9.82262 9.33325 9.99952C9.33325 10.1764 9.40352 10.3461 9.52861 10.4712C9.6537 10.5962 9.82335 10.6665 10.0003 10.6665ZM10.0003 5.99952C10.0899 6.00299 10.1794 5.98832 10.2633 5.9564C10.3472 5.92447 10.4238 5.87593 10.4885 5.8137C10.5532 5.75147 10.6046 5.67681 10.6398 5.59422C10.675 5.51162 10.6931 5.42278 10.6931 5.33302C10.6931 5.24325 10.675 5.15441 10.6398 5.07181C10.6046 4.98922 10.5532 4.91457 10.4885 4.85233C10.4238 4.7901 10.3472 4.74156 10.2633 4.70964C10.1794 4.67771 10.0899 4.66304 10.0003 4.66652C9.82795 4.67319 9.66493 4.74633 9.54539 4.87059C9.42585 4.99486 9.35907 5.16059 9.35907 5.33302C9.35907 5.50544 9.42585 5.67117 9.54539 5.79544C9.66493 5.9197 9.82795 5.99284 10.0003 5.99952ZM10.0003 15.3325C10.0899 15.336 10.1794 15.3213 10.2633 15.2894C10.3472 15.2575 10.4238 15.2089 10.4885 15.1467C10.5532 15.0845 10.6046 15.0098 10.6398 14.9272C10.675 14.8446 10.6931 14.7558 10.6931 14.666C10.6931 14.5763 10.675 14.4874 10.6398 14.4048C10.6046 14.3222 10.5532 14.2476 10.4885 14.1853C10.4238 14.1231 10.3472 14.0746 10.2633 14.0426C10.1794 14.0107 10.0899 13.996 10.0003 13.9995C9.82795 14.0062 9.66493 14.0793 9.54539 14.2036C9.42585 14.3279 9.35907 14.4936 9.35907 14.666C9.35907 14.8384 9.42585 15.0042 9.54539 15.1284C9.66493 15.2527 9.82795 15.3258 10.0003 15.3325Z" stroke="#808080" strokeWidth="1.5" strokeLinecap="round" strokeLinejoin="round"/>
</svg>
