<svg xmlns="http://www.w3.org/2000/svg" viewBox="0 0 600 300">
  <defs>
    <style>
      @keyframes rotate {
        from { transform: rotate(0deg); }
        to { transform: rotate(360deg); }
      }
      .rotate {
        transform-origin: 400px 200px;
        animation: rotate 20s linear infinite;
      }
      .node {
        fill: #4F9FE3;
      }
      .line {
        stroke: #4F9FE3;
        stroke-width: 2;
        opacity: 0.4;
      }
      .block-text {
        font-size: 12px;
        font-family: Arial, sans-serif;
        fill: #444;
      }
      .connection-line {
        stroke: #4F9FE3;
        stroke-width: 2;
        opacity: 0.3;
      }
    </style>
  </defs>
  <!-- Centered network graph -->
  <!-- Background circle -->
  <circle cx="400" cy="200" r="120" fill="none" stroke="#4F9FE3" stroke-width="1" opacity="0.3"/>

  <!-- Rotating network group -->
  <g class="rotate">
    <!-- Connection lines -->
    <line class="line" x1="350" y1="150" x2="400" y2="120"/>
    <line class="line" x1="400" y1="120" x2="450" y2="150"/>
    <line class="line" x1="450" y1="150" x2="480" y2="200"/>
    <line class="line" x1="480" y1="200" x2="450" y2="250"/>
    <line class="line" x1="450" y1="250" x2="400" y2="280"/>
    <line class="line" x1="400" y1="280" x2="350" y2="250"/>
    <line class="line" x1="350" y1="250" x2="320" y2="200"/>
    <line class="line" x1="320" y1="200" x2="350" y2="150"/>

    <!-- Cross connections -->
    <line class="line" x1="350" y1="150" x2="450" y2="250"/>
    <line class="line" x1="350" y1="250" x2="450" y2="150"/>
    <line class="line" x1="320" y1="200" x2="480" y2="200"/>
    <line class="line" x1="400" y1="120" x2="400" y2="280"/>
    
    <!-- Nodes -->
    <circle class="node" cx="350" cy="150" r="4"/>
    <circle class="node" cx="450" cy="250" r="4"/>
    <circle class="node" cx="350" cy="250" r="4"/>
    <circle class="node" cx="450" cy="150" r="4"/>
    <circle class="node" cx="400" cy="120" r="4"/>
    <circle class="node" cx="400" cy="280" r="4"/>
    <circle class="node" cx="320" cy="200" r="4"/>
    <circle class="node" cx="480" cy="200" r="4"/>
    <circle class="node" cx="380" cy="180" r="4"/>
    <circle class="node" cx="420" cy="220" r="4"/>
    <circle class="node" cx="380" cy="220" r="4"/>
    <circle class="node" cx="420" cy="180" r="4"/>
  </g>

  <!-- Center static node -->
  <circle cx="400" cy="200" r="6" fill="#4F9FE3"/>
</svg>
